<?xml version="1.0" standalone="no"?>
<!DOCTYPE svg PUBLIC "-//W3C//DTD SVG 20010904//EN"
 "http://www.w3.org/TR/2001/REC-SVG-20010904/DTD/svg10.dtd">
<svg version="1.0" xmlns="http://www.w3.org/2000/svg"
 width="493.000000pt" height="180.000000pt" viewBox="0 0 493.000000 180.000000"
 preserveAspectRatio="xMidYMid meet">

<g transform="translate(0.000000,180.000000) scale(0.100000,-0.100000)"
fill="#000000" stroke="none">
<path d="M72 1439 c-53 -27 -72 -62 -72 -135 0 -50 3 -59 33 -89 24 -24 54
-39 107 -54 105 -30 124 -41 128 -76 5 -38 -19 -55 -75 -55 -33 0 -50 6 -68
25 -14 13 -25 29 -25 35 0 5 -22 10 -50 10 l-50 0 0 -39 c0 -66 67 -118 165
-128 124 -13 214 41 223 135 8 89 -44 143 -171 175 -75 20 -107 41 -107 71 0
69 139 70 156 1 6 -23 11 -25 61 -25 l56 0 -6 37 c-9 51 -35 84 -87 111 -60
30 -158 31 -218 1z"/>
<path d="M3225 1447 c-122 -49 -183 -145 -173 -271 15 -180 181 -286 364 -231
137 40 214 205 165 349 -17 49 -73 112 -125 138 -50 26 -184 35 -231 15z m175
-115 c47 -24 74 -74 74 -139 0 -90 -60 -148 -153 -148 -99 1 -158 67 -149 167
8 83 69 138 153 138 22 0 56 -8 75 -18z"/>
<path d="M600 1395 l0 -55 80 0 80 0 0 -200 0 -200 60 0 60 0 0 200 0 200 80
0 80 0 0 55 0 55 -220 0 -220 0 0 -55z"/>
<path d="M1272 1262 l3 -189 30 -48 c36 -57 86 -87 159 -93 75 -6 135 13 176
57 52 54 60 94 60 290 l0 171 -60 0 -60 0 0 -176 0 -176 -30 -30 c-27 -27 -36
-30 -72 -25 -78 10 -83 23 -86 227 l-3 180 -60 0 -61 0 4 -188z"/>
<path d="M1970 1195 l0 -255 123 0 c144 0 210 16 264 63 50 44 83 118 83 187
0 114 -40 184 -133 230 -58 29 -65 30 -199 30 l-138 0 0 -255z m282 129 c92
-47 90 -206 -3 -256 -22 -12 -55 -18 -96 -18 l-63 0 0 151 0 152 66 -7 c37 -4
80 -14 96 -22z"/>
<path d="M2690 1195 l0 -255 60 0 60 0 0 255 0 255 -60 0 -60 0 0 -255z"/>
<path d="M3710 1355 l0 -65 610 0 610 0 0 65 0 65 -610 0 -610 0 0 -65z"/>
<path d="M1643 850 c-55 -24 -83 -70 -83 -134 0 -43 4 -53 38 -86 29 -30 57
-44 123 -64 114 -35 149 -74 97 -110 -45 -32 -133 -13 -144 31 -6 21 -12 23
-65 23 -41 0 -59 -4 -59 -12 1 -23 37 -93 58 -111 48 -43 154 -59 237 -36 87
24 135 121 98 196 -24 49 -67 77 -169 108 -87 27 -111 47 -99 85 4 12 22 24
47 32 48 14 85 -1 106 -45 13 -26 17 -28 65 -25 51 3 52 3 49 33 -9 83 -83
135 -191 135 -43 0 -81 -7 -108 -20z"/>
<path d="M2255 618 c-54 -134 -99 -249 -102 -255 -4 -10 12 -13 59 -13 l64 0
15 43 16 42 103 0 103 0 16 -42 15 -43 64 0 c47 0 63 3 59 13 -57 142 -190
475 -194 485 -3 7 -26 12 -63 12 l-58 0 -97 -242z m188 15 c14 -38 28 -76 32
-85 6 -16 0 -18 -65 -18 -65 0 -71 2 -65 18 4 9 18 47 32 85 14 37 29 67 33
67 4 0 19 -30 33 -67z"/>
<path d="M2840 853 c0 -4 43 -118 95 -253 l94 -245 59 -3 59 -3 90 238 c50
131 94 246 98 256 6 15 0 17 -56 17 l-64 0 -60 -165 c-33 -91 -62 -165 -65
-165 -3 0 -33 73 -66 163 l-61 162 -61 3 c-34 2 -62 -1 -62 -5z"/>
<path d="M3512 852 c2 -5 46 -120 98 -256 l95 -247 59 3 59 3 89 230 c49 127
91 240 94 253 6 21 3 22 -54 22 l-61 0 -21 -57 c-12 -32 -38 -100 -56 -152
-47 -127 -50 -132 -62 -101 -5 14 -33 89 -62 168 l-53 142 -64 0 c-36 0 -63
-4 -61 -8z"/>
<path d="M4195 843 c3 -10 44 -84 91 -165 l84 -147 0 -91 0 -90 60 0 60 0 0
93 0 92 90 159 c50 87 90 160 90 162 0 2 -29 4 -65 4 l-64 0 -53 -100 c-29
-55 -56 -100 -59 -100 -4 0 -30 45 -59 100 l-53 100 -64 0 c-58 0 -64 -2 -58
-17z"/>
<path d="M150 460 l0 -70 615 0 615 0 0 70 0 70 -615 0 -615 0 0 -70z"/>
</g>
</svg>
